HIERARCHY
ROOT joint_0
{
	OFFSET 0.000000 0.000000 0.000000
	CHANNELS 6 Xposition Yposition Zposition Zrotation Yrotation Xrotation 
	JOINT joint_1
	{
		OFFSET 11.612000 -0.419000 106.198000
		CHANNELS 3 Zrotation Yrotation Xrotation
		JOINT joint_2
		{
			OFFSET -1.708000 -1.022000 97.564090
			CHANNELS 3 Zrotation Yrotation Xrotation
			JOINT joint_3
			{
				OFFSET -4.121000 -1.538000 97.375000
				CHANNELS 3 Zrotation Yrotation Xrotation
				JOINT joint_4
				{
					OFFSET 5.442000 -2.123000 132.795900
					CHANNELS 3 Zrotation Yrotation Xrotation
					JOINT joint_5
					{
						OFFSET 21.935000 0.195000 82.975100
						CHANNELS 3 Zrotation Yrotation Xrotation
						End Site
						{
							OFFSET 0.000000 0.000000 0.000000
						}
					}
				}
				JOINT joint_6
				{
					OFFSET 4.262000 -30.048000 73.899900
					CHANNELS 3 Zrotation Yrotation Xrotation
					JOINT joint_7
					{
						OFFSET 9.731000 -136.810010 -21.963010
						CHANNELS 3 Zrotation Yrotation Xrotation
						JOINT joint_8
						{
							OFFSET 33.360000 -35.709000 -267.597900
							CHANNELS 3 Zrotation Yrotation Xrotation
							JOINT joint_9
							{
								OFFSET 36.156000 -29.759000 -240.558040
								CHANNELS 3 Zrotation Yrotation Xrotation
								End Site
								{
									OFFSET 0.000000 0.000000 0.000000
								}
							}
						}
					}
				}
				JOINT joint_10
				{
					OFFSET 2.027000 27.734000 74.914920
					CHANNELS 3 Zrotation Yrotation Xrotation
					JOINT joint_11
					{
						OFFSET -5.183000 136.784000 -23.604980
						CHANNELS 3 Zrotation Yrotation Xrotation
						JOINT joint_12
						{
							OFFSET 29.806000 37.229000 -267.809940
							CHANNELS 3 Zrotation Yrotation Xrotation
							JOINT joint_13
							{
								OFFSET 36.890000 46.524990 -237.772030
								CHANNELS 3 Zrotation Yrotation Xrotation
								End Site
								{
									OFFSET 0.000000 0.000000 0.000000
								}
							}
						}
					}
				}
			}
		}
	}
	JOINT joint_14
	{
		OFFSET -7.290000 -102.873990 -124.314940
		CHANNELS 3 Zrotation Yrotation Xrotation
		JOINT joint_15
		{
			OFFSET -15.466000 -19.909010 -438.533020
			CHANNELS 3 Zrotation Yrotation Xrotation
			JOINT joint_16
			{
				OFFSET -26.899000 -18.922000 -464.797000
				CHANNELS 3 Zrotation Yrotation Xrotation
				JOINT joint_17
				{
					OFFSET 179.329000 -12.011000 -84.174000
					CHANNELS 3 Zrotation Yrotation Xrotation
					End Site
					{
						OFFSET 0.000000 0.000000 0.000000
					}
				}
			}
		}
	}
	JOINT joint_18
	{
		OFFSET -6.225000 101.546000 -125.479980
		CHANNELS 3 Zrotation Yrotation Xrotation
		JOINT joint_19
		{
			OFFSET -13.973000 7.996000 -438.963010
			CHANNELS 3 Zrotation Yrotation Xrotation
			JOINT joint_20
			{
				OFFSET -44.294000 5.716000 -463.813970
				CHANNELS 3 Zrotation Yrotation Xrotation
				JOINT joint_21
				{
					OFFSET 178.505000 -4.689000 -85.139000
					CHANNELS 3 Zrotation Yrotation Xrotation
					End Site
					{
						OFFSET 0.000000 0.000000 0.000000
					}
				}
			}
		}
	}
}
MOTION
Frames: 9
Frame Time: 0.016667
462.573000 -104.619000 1133.020020 3.561868 12.444088 -1.049646 -3.473256 10.904383 0.432162 -2.996867 -2.188552 0.293399 -2.862782 1.862939 0.335412 -0.582172 0.156153 1.754186 0.000000 0.000000 0.000000 -2.826629 3.394116 2.166468 -0.165556 2.412400 -5.575636 3.661805 -21.605212 1.992809 0.000000 0.000000 0.000000 -3.107458 1.478640 2.677662 0.255618 2.029201 1.145778 -1.020950 -4.490452 -0.805867 0.000000 0.000000 0.000000 -1.675404 -34.888549 1.697754 -4.381963 11.365737 0.938757 -3.662971 -8.091264 -2.088550 0.000000 0.000000 0.000000 -0.177419 6.758739 2.542072 -0.084338 5.332462 0.347121 0.117721 23.718067 0.758308 0.000000 0.000000 0.000000 
489.276000 -106.025000 1127.822020 3.944233 12.434280 -0.695985 -3.662404 11.187773 0.631271 -3.037038 -2.199315 0.272309 -2.877686 1.869723 0.376118 -0.489239 0.664576 1.484505 0.000000 0.000000 0.000000 -3.045257 3.251450 1.956995 -0.153550 2.263783 -5.502859 3.740219 -21.757024 2.385140 0.000000 0.000000 0.000000 -3.228431 1.277725 2.783526 0.214267 1.840670 1.211060 -1.160796 -5.328220 -0.795228 0.000000 0.000000 0.000000 -1.062223 -34.836666 1.820265 -3.659536 10.167095 0.462867 -2.933356 -9.292771 -1.860418 0.000000 0.000000 0.000000 -0.798364 7.231617 2.480066 -0.624371 6.259084 0.284239 -0.455399 26.613873 0.635611 0.000000 0.000000 0.000000 
516.486020 -107.746000 1121.775020 4.197798 12.245243 -0.401234 -3.727233 11.366603 0.918375 -2.934746 -2.178507 0.227776 -2.742416 1.907891 0.428109 -0.395043 1.228504 1.217301 0.000000 0.000000 0.000000 -3.186620 3.119104 1.795188 -0.213821 2.130858 -5.529280 3.710511 -21.508334 2.737643 0.000000 0.000000 0.000000 -3.322236 1.019271 2.785391 0.159497 1.589287 1.285473 -1.297128 -6.246204 -0.723287 0.000000 0.000000 0.000000 -0.472660 -34.672488 1.998780 -3.136545 10.242840 0.124858 -2.410503 -9.798450 -1.675565 0.000000 0.000000 0.000000 -1.295018 7.322035 2.493610 -1.009527 8.386896 0.055429 -0.960032 28.778457 0.524335 0.000000 0.000000 0.000000 
544.416990 -110.045000 1114.904050 4.530574 11.681196 -0.186272 -3.752485 11.649469 1.368109 -2.684571 -2.260731 0.149196 -2.424781 2.006163 0.505675 -0.313967 1.817933 0.984659 0.000000 0.000000 0.000000 -3.167814 3.076002 1.714369 -0.375643 2.100010 -5.685500 3.549972 -20.938128 2.952134 0.000000 0.000000 0.000000 -3.378444 0.652586 2.610478 0.083321 1.224453 1.393723 -1.421109 -7.242262 -0.524701 0.000000 0.000000 0.000000 -0.054791 -33.853930 2.268297 -3.055251 10.833734 -0.040409 -2.449557 -7.352880 -1.522310 0.000000 0.000000 0.000000 -1.547452 7.011440 2.772653 -1.088773 12.261783 -0.438379 -1.281072 29.878469 0.457528 0.000000 0.000000 0.000000 
573.158020 -112.890000 1106.970950 5.034673 10.792014 -0.113207 -3.802490 11.950684 2.222380 -2.328025 -2.387121 -0.114548 -1.945798 2.127095 0.609570 -0.243140 2.481609 0.771463 0.000000 0.000000 0.000000 -3.023778 3.118227 1.699537 -0.614667 2.162040 -5.993304 3.292265 -20.015271 3.121907 0.000000 0.000000 0.000000 -3.388503 0.196195 2.258774 -0.010395 0.765042 1.553750 -1.545050 -8.287489 -0.280202 0.000000 0.000000 0.000000 0.185534 -32.491697 2.716463 -3.416801 12.118312 -0.021110 -3.030385 -2.386863 -1.430078 0.000000 0.000000 0.000000 -1.639552 6.414163 3.406949 -0.949202 17.470791 -1.067110 -1.408422 30.679766 0.455100 0.000000 0.000000 0.000000 
601.091000 -115.376000 1099.685060 5.336043 9.897740 -0.291487 -3.767448 12.361110 3.294004 -1.882801 -2.451122 -0.428537 -1.367530 2.199220 0.736518 -0.189377 3.043878 0.589890 0.000000 0.000000 0.000000 -2.783184 3.000352 1.795777 -0.865565 2.065283 -6.451249 2.970082 -18.598737 3.179900 0.000000 0.000000 0.000000 -3.311048 -0.236552 1.911402 -0.127675 0.301578 1.569021 -1.732580 -9.633597 -0.139902 0.000000 0.000000 0.000000 0.341915 -31.437700 3.330755 -3.917460 14.252192 0.099744 -3.693677 1.516743 -1.454016 0.000000 0.000000 0.000000 -1.706365 5.265793 4.082201 -0.848917 23.417169 -1.465309 -1.456790 31.229101 0.463351 0.000000 0.000000 0.000000 
626.846010 -116.759000 1093.983030 4.965439 9.236274 -0.964851 -3.461482 12.952269 4.709251 -1.274050 -2.364821 -0.767050 -0.650931 2.206399 0.875583 -0.140277 3.331545 0.403609 0.000000 0.000000 0.000000 -2.410685 2.497743 2.095364 -1.102730 1.573182 -7.289216 2.592168 -16.418773 3.211916 0.000000 0.000000 0.000000 -3.098168 -0.576856 1.650521 -0.267903 -0.113074 1.339789 -2.039272 -11.588701 -0.203051 0.000000 0.000000 0.000000 0.615734 -31.609217 4.186906 -4.345467 18.216423 0.339875 -4.060541 1.072861 -1.636443 0.000000 0.000000 0.000000 -1.720261 3.194500 4.765989 -0.850447 30.188938 -1.588049 -1.635692 31.332939 0.409399 0.000000 0.000000 0.000000 
651.036010 -117.381000 1089.196040 4.251135 8.555662 -2.077937 -3.022615 13.935003 6.599235 -0.529558 -2.254314 -1.194166 0.209726 2.141132 1.009209 -0.085636 3.408710 0.190682 0.000000 0.000000 0.000000 -1.886366 1.712456 2.579881 -1.310576 0.793569 -8.574032 2.172923 -13.510582 3.292267 0.000000 0.000000 0.000000 -2.751192 -0.857787 1.410756 -0.428500 -0.505872 0.944084 -2.448115 -14.050387 -0.457710 0.000000 0.000000 0.000000 0.928603 -32.458880 5.252825 -4.845642 23.790835 0.730800 -4.389956 -1.930308 -1.964117 0.000000 0.000000 0.000000 -1.655283 0.550605 5.670880 -0.872539 37.682649 -1.550669 -2.025654 31.335735 0.284172 0.000000 0.000000 0.000000 
675.002010 -117.906000 1086.308960 3.861274 7.928740 -2.994359 -2.772727 15.012257 8.092947 0.136800 -2.219962 -1.503570 0.995839 2.048142 1.097568 -0.077443 3.494955 0.115805 0.000000 0.000000 0.000000 -1.465122 0.893519 2.976972 -1.369095 0.003184 -9.365296 1.717792 -10.614999 2.764289 0.000000 0.000000 0.000000 -2.460365 -1.073262 1.326839 -0.612503 -0.841706 0.335355 -2.861137 -16.385961 -0.810698 0.000000 0.000000 0.000000 1.145508 -32.738960 6.108096 -5.329810 28.341348 1.065764 -4.763433 -4.803308 -2.307937 0.000000 0.000000 0.000000 -1.575025 -2.234349 6.385344 -0.955961 44.517183 -1.282598 -2.471717 30.695829 0.110886 0.000000 0.000000 0.000000 
